<svg width="100" height="100" viewBox="0 0 100 100" fill="none" xmlns="http://www.w3.org/2000/svg">
<rect width="100" height="100" rx="50" fill="#020713"/>
<path fill-rule="evenodd" clip-rule="evenodd" d="M61.4928 32.5L69 25.5H75.5V67.5C75.5 68.9667 74.8333 70.4667 73.5 72C72.0333 73.6667 70.3667 74.5 68.5 74.5H66.5V67.5H67.5V32.5H61.4928ZM52.1262 32.5H61.4928L46.8 46.2V47.2H59.5C61.4333 47.2 63.0667 47.9 64.4 49.3C65.8 50.6333 66.5 52.2667 66.5 54.2V67.5H58.5V53.5H32.5V74.5H24.5V25.5H32.5V52.2L52.1262 32.5ZM59.1 25.5L52.1262 32.5H40.5V25.5H59.1ZM58.5 74.5H47.5C45.6333 74.5 44 73.8 42.6 72.4C41.2 71 40.5 69.3667 40.5 67.5V60.5H48.5V67.5H58.5V74.5Z" fill="#00ff88"/>
</svg>